<svg viewBox="0 0 72 21" xmlns="http://www.w3.org/2000/svg"><defs/><path d="M.68 4.093c0 1.704.344 3.744 2.974 3.744h6.434V3.272H5.05V5.16h3.095v.882H4.078c-1.527 0-1.304-1.482-1.304-1.917 0-1.086.202-1.675 1.213-1.675h6.1V.487h-6.07C1.62.487.68 1.902.68 4.093m11.235 3.744h8.194V6.041h-6.145V5.16h6.145V3.38h-6.145v-.777h6.145V.487h-8.194zm16.94-1.933L24.727.487h-2.792v7.35h1.912V2.419l4.128 5.418h2.792V.487h-1.912zm3.982 1.933h8.194V6.041h-6.145V5.16h6.145V3.38h-6.145v-.777h6.145V.487h-8.194zm16.166-3.944H44.83V2.508h4.204c.562 0 .957.167.957.624 0 .456-.091.76-.987.76m3.02-.788c0-1.02-.02-2.617-2.458-2.617H42.86v7.35h1.972V5.693h3.066l1.714 2.146h2.55l-1.836-2.36c1.344-.199 1.698-1.155 1.698-2.374M66.097.487H64.05v7.35h7.373V6.041h-5.326zm-9.665 4.091l1.385-2.473 1.388 2.473h-2.773zm.057-4.09l-4.127 7.35h2.247l.81-1.446h4.803l.805 1.445h2.245L59.145.487h-2.656zM6.165 19.266H2.452v-3.279h3.795c1.036 0 1.11.649 1.11 1.529 0 .805.018 1.75-1.192 1.75m.055-5.07H.68v6.709h5.873c2.254 0 2.715-1.418 2.715-3.418s-.859-3.293-3.048-3.293m19.178 4.946l-3.767-4.945h-2.55v6.711h1.747V15.96l3.768 4.947h2.549v-6.71h-1.747zm6.272-1.21l1.265-2.258 1.268 2.258h-2.532zm.053-3.735l-3.768 6.711h2.05l.74-1.32h4.386l.734 1.32h2.05l-3.768-6.71h-2.424zm-17.9 2.889l-2.392-2.889H8.99l3.852 4.392v2.32h1.913v-2.32l3.85-4.392h-2.439zm29.882 1.786l-2.216-4.675h-2.881v6.71h1.745v-5.12l2.55 5.12h1.606l2.55-5.12v5.12h1.744v-6.71h-2.881zm7.117-4.675v6.711h1.884l-.013-6.71zm3.198 3.292c0 2 .462 3.419 2.716 3.419h5.292v-1.633s-4.1-.007-4.904-.007c-1.21 0-1.191-.945-1.191-1.75 0-.88.073-1.53 1.107-1.53h4.988v-1.79h-4.96c-2.188 0-3.048 1.291-3.048 3.291m15.423-.666h-4.045c-.291 0-.617-.083-.617-.403s.326-.403.617-.403l5.803-.007v-1.632h-6.247c-1.592 0-1.98.82-1.98 2.042s.388 2.043 1.98 2.043h4.045c.292 0 .617.082.617.403 0 .32-.325.402-.617.402l-5.805.007v1.632h6.249c1.592 0 1.98-.82 1.98-2.041 0-1.223-.388-2.043-1.98-2.043" fill="#144396" fill-rule="evenodd"/></svg>