<svg width="74" height="50" viewBox="0 0 74 50" fill="none" xmlns="http://www.w3.org/2000/svg">
<g clip-path="url(#clip0_3_4504)">
<path fill-rule="evenodd" clip-rule="evenodd" d="M2.44534 0.702789H41.6918C42.8428 0.702789 43.7973 1.65939 43.7973 2.81309V42.2342C43.7973 43.3879 42.8428 44.3446 41.6918 44.3446H2.44534C1.29434 44.3446 0.339844 43.3879 0.339844 42.2342V2.81309C0.339844 1.65939 1.29434 0.702789 2.44534 0.702789ZM39.5863 9.20039V4.92339H4.55084V9.20039H39.5863ZM4.55084 13.4211V40.1239H39.5863V13.4211H4.55084ZM9.55284 17.0228H34.5661C35.729 17.0228 36.6716 17.9676 36.6716 19.1331V21.9469C36.6716 23.1124 35.729 24.0572 34.5661 24.0572H9.55284C8.39004 24.0572 7.44744 23.1124 7.44744 21.9469V19.1331C7.44744 17.9676 8.39004 17.0228 9.55284 17.0228ZM18.4678 29.4312H9.51244C8.34964 29.4312 7.40694 30.3761 7.40694 31.5416V34.3553C7.40694 35.5209 8.34964 36.4657 9.51244 36.4657H18.4678C19.6306 36.4657 20.5733 35.5209 20.5733 34.3553V31.5416C20.5733 30.3761 19.6306 29.4312 18.4678 29.4312ZM25.5321 29.4036H34.6279C35.7907 29.4036 36.7333 30.3484 36.7333 31.5139V34.3277C36.7333 35.4932 35.7907 36.438 34.6279 36.438H25.5321C24.3693 36.438 23.4266 35.4932 23.4266 34.3277V31.5139C23.4266 30.3484 24.3693 29.4036 25.5321 29.4036Z" fill="#C9D8E3"/>
<path d="M73.2247 44.5815L60.1813 33.641C59.9342 33.4337 59.6278 33.3416 59.3123 33.37L58.0109 33.4874C60.7935 29.5936 62.2561 24.7209 61.7958 19.5725C60.7788 8.19649 50.7761 -0.193708 39.4481 0.827692C28.1201 1.84899 19.7655 11.8942 20.7824 23.2702C21.7994 34.6462 31.8022 43.0363 43.1302 42.015C48.2569 41.5528 52.7708 39.2395 56.0905 35.7963L56.2074 37.1033C56.2357 37.4201 56.3904 37.7056 56.6277 37.9137L69.671 48.8542C70.176 49.2778 70.9253 49.2102 71.347 48.7031L73.3751 46.2646C73.7969 45.7575 73.7296 45.0051 73.2247 44.5815ZM42.7053 37.2626C33.99 38.0484 26.2972 31.5959 25.5148 22.8435C24.7323 14.0912 31.1576 6.36579 39.873 5.57999C48.5883 4.79429 56.2811 11.2468 57.0635 19.9991C57.846 28.7515 51.4207 36.4769 42.7053 37.2626Z" fill="url(#paint0_linear_3_4504)"/>
</g>
<defs>
<linearGradient id="paint0_linear_3_4504" x1="21.2074" y1="28.0238" x2="71.6913" y2="23.5106" gradientUnits="userSpaceOnUse">
<stop stop-color="#00334D"/>
<stop offset="1" stop-color="#28628F"/>
</linearGradient>
<clipPath id="clip0_3_4504">
<rect width="74" height="50" fill="white"/>
</clipPath>
</defs>
</svg>
