<svg width="74" height="50" viewBox="0 0 74 50" fill="none" xmlns="http://www.w3.org/2000/svg">
<g clip-path="url(#clip0_3_4521)">
<path d="M4.96319 24.2226L4.74343 26.6119L6.15089 28.4749C6.19503 28.5424 6.20673 28.675 6.15795 28.7726C6.10924 28.8702 5.99996 28.9328 5.92321 28.9304L3.70287 28.6939L1.97152 30.2083C1.9088 30.2559 1.78558 30.2684 1.69489 30.216C1.60419 30.1635 1.54603 30.0459 1.54835 29.9634L1.76811 27.5741L0.360674 25.7111C0.316472 25.6435 0.304786 25.5109 0.353566 25.4133C0.402346 25.3158 0.511582 25.2532 0.588301 25.2557L2.80867 25.4921L4.54001 23.9777C4.60274 23.9301 4.72596 23.9175 4.81665 23.97C4.90735 24.0225 4.96551 24.14 4.96319 24.2226ZM11.2224 35.5621L11.4421 33.1729L10.0347 31.3098C9.99046 31.2423 9.97884 31.1097 10.0276 31.0121C10.0763 30.9145 10.1856 30.852 10.2624 30.8544L12.4827 31.0908L14.214 29.5764C14.2768 29.5288 14.4 29.5162 14.4907 29.5687C14.5814 29.6212 14.6396 29.7388 14.6372 29.8213L14.4175 32.2106L15.8249 34.0736C15.8691 34.1411 15.8808 34.2737 15.832 34.3713C15.7832 34.4689 15.674 34.5316 15.5972 34.5291L13.3769 34.2926L11.6456 35.8071C11.5828 35.8546 11.4596 35.8672 11.3689 35.8147C11.2782 35.7622 11.2201 35.6446 11.2224 35.5621ZM8.61311 28.8514C8.43173 28.7464 8.29904 28.5438 8.30592 28.2961L8.43396 23.6729L5.94464 19.8415C5.69338 19.4864 5.98602 18.9008 6.39991 18.9307L10.7428 19.0534L14.2567 16.3897C14.445 16.247 14.6752 16.2544 14.8566 16.3594C15.0379 16.4644 15.1403 16.6495 15.1335 16.8971L15.0054 21.5204L17.4947 25.3517C17.6437 25.5218 17.6368 25.7695 17.5392 25.9646C17.4417 26.1598 17.2535 26.3025 17.0396 26.2626L12.6966 26.1398L9.18265 28.8035C8.99438 28.9462 8.7945 28.9563 8.61311 28.8514Z" fill="#C9D8E3"/>
<path d="M67.9737 37.8479L66.1777 37.5267L64.6922 38.6595C64.6388 38.6946 64.5378 38.6977 64.4666 38.6497C64.3954 38.6018 64.3539 38.5027 64.3599 38.4356L64.6583 36.5029L63.6056 34.9044C63.573 34.8469 63.5701 34.7383 63.6148 34.6617C63.6593 34.585 63.7514 34.5404 63.8137 34.5469L65.6097 34.868L67.0952 33.7352C67.1487 33.7001 67.2496 33.6969 67.3209 33.745C67.392 33.793 67.4335 33.892 67.4276 33.9592L67.1291 35.8918L68.1819 37.4902C68.2145 37.5478 68.2173 37.6564 68.1727 37.7331C68.1281 37.8096 68.036 37.8544 67.9737 37.8479ZM59.0567 42.7214L60.8527 43.0426L62.3382 41.9097C62.3916 41.8746 62.4925 41.8716 62.5638 41.9195C62.6349 41.9675 62.6765 42.0666 62.6705 42.1337L62.372 44.0664L63.4248 45.6648C63.4574 45.7223 63.4602 45.8309 63.4157 45.9076C63.3711 45.9843 63.279 46.0289 63.2166 46.0224L61.4206 45.7013L59.9352 46.8341C59.8817 46.8692 59.7808 46.8722 59.7095 46.8243C59.6383 46.7763 59.5968 46.6772 59.6028 46.6101L59.9013 44.6775L58.8486 43.079C58.8159 43.0215 58.813 42.9129 58.8577 42.8362C58.9023 42.7596 58.9943 42.7149 59.0567 42.7214ZM64.2748 40.7965C64.3641 40.6432 64.5244 40.538 64.7115 40.5573L68.2028 40.9184L71.2358 38.9436C71.518 38.7426 71.9454 39.0305 71.9005 39.3915L71.5738 43.1899L73.4001 46.4121C73.498 46.5847 73.48 46.786 73.3909 46.9393C73.3016 47.0925 73.1561 47.1723 72.9691 47.153L69.4777 46.7919L66.4447 48.7667C66.3081 48.888 66.121 48.8686 65.9786 48.7726C65.8361 48.6767 65.7383 48.5041 65.78 48.3188L66.1068 44.5203L64.2804 41.2982C64.1826 41.1256 64.1857 40.9498 64.2748 40.7965Z" fill="#C9D8E3"/>
<path d="M58.7587 3.2588L57.0781 4.01232L56.3779 5.82075C56.3498 5.88103 56.2658 5.94131 56.1818 5.94131C56.0978 5.94131 56.0137 5.88103 55.9857 5.82075L55.2854 4.01232L53.6048 3.2588C53.5488 3.22866 53.4928 3.13823 53.4928 3.04782C53.4928 2.95739 53.5488 2.86696 53.6048 2.83682L55.2854 2.08331L55.9857 0.274853C56.0137 0.214575 56.0978 0.154297 56.1818 0.154297C56.2658 0.154297 56.3498 0.214575 56.3779 0.274853L57.0781 2.08331L58.7587 2.83682C58.8147 2.86696 58.8707 2.95739 58.8707 3.04782C58.8707 3.13823 58.8147 3.22866 58.7587 3.2588ZM53.6048 12.4819L55.2854 11.7283L55.9857 9.91992C56.0137 9.85964 56.0978 9.79936 56.1818 9.79936C56.2658 9.79936 56.3498 9.85964 56.3779 9.91992L57.0781 11.7283L58.7587 12.4819C58.8147 12.512 58.8707 12.6024 58.8707 12.6929C58.8707 12.7833 58.8147 12.8737 58.7587 12.9039L57.0781 13.6574L56.3779 15.4658C56.3498 15.5261 56.2658 15.5864 56.1818 15.5864C56.0978 15.5864 56.0137 15.5261 55.9857 15.4658L55.2854 13.6574L53.6048 12.9039C53.5488 12.8737 53.4928 12.7833 53.4928 12.6929C53.4928 12.6024 53.5488 12.512 53.6048 12.4819ZM57.0781 7.87038C57.0781 7.68945 57.1621 7.50862 57.3302 7.41825L60.4673 5.73038L62.0639 2.32444C62.2039 1.99288 62.7081 1.99288 62.8481 2.32444L64.4447 5.73038L67.5818 7.41825C67.7498 7.50862 67.8339 7.68945 67.8339 7.87038C67.8339 8.05121 67.7498 8.20186 67.5818 8.29233L64.4447 9.9802L62.8481 13.3861C62.7921 13.567 62.6241 13.6574 62.456 13.6574C62.288 13.6574 62.1199 13.567 62.0639 13.3861L60.4673 9.9802L57.3302 8.29233C57.1621 8.20186 57.0781 8.05121 57.0781 7.87038Z" fill="#C9D8E3"/>
<path d="M43.7684 26.5712L34.3867 23.6892C33.1121 23.2986 32.0795 22.1962 31.8778 20.7812C31.5632 18.5764 33.1524 16.6667 35.1449 16.6667H41.0983C42.3809 16.6667 43.6393 17.1007 44.68 17.8906C45.1963 18.2813 45.89 18.2204 46.3336 17.743L48.181 15.7552C48.7295 15.1649 48.6731 14.1754 48.06 13.6632C46.0675 12.0052 43.6474 11.1111 41.0983 11.1111H40.8724V6.94443C40.8724 6.18054 40.2916 5.55554 39.5817 5.55554H37.0003C36.2905 5.55554 35.7096 6.18054 35.7096 6.94443V11.1111H35.5079C31.539 11.1111 27.8767 13.8716 26.9248 18.0208C25.8035 22.8993 28.5543 27.6736 32.8136 28.9843L42.1954 31.8663C43.4699 32.2569 44.5025 33.3593 44.7042 34.7743C45.0188 36.9792 43.4296 38.8889 41.4371 38.8889H35.4838C34.2011 38.8889 32.9426 38.4548 31.9021 37.6649C31.3858 37.2742 30.692 37.3351 30.2484 37.8125L28.401 39.8004C27.8525 40.3906 27.9089 41.3802 28.522 41.8924C30.5065 43.5504 32.9266 44.4444 35.4838 44.4444H35.7096V48.6111C35.7096 49.375 36.2905 50 37.0003 50H39.5817C40.2916 50 40.8724 49.375 40.8724 48.6111V44.4444H41.074C45.0429 44.4444 48.7053 41.684 49.6572 37.5347C50.7785 32.6562 48.0277 27.8819 43.7684 26.5712Z" fill="url(#paint0_linear_3_4521)"/>
</g>
<defs>
<linearGradient id="paint0_linear_3_4521" x1="26.6736" y1="27.7778" x2="49.9084" y2="27.7778" gradientUnits="userSpaceOnUse">
<stop stop-color="#00334D"/>
<stop offset="1" stop-color="#28628F"/>
</linearGradient>
<clipPath id="clip0_3_4521">
<rect width="74" height="50" fill="white"/>
</clipPath>
</defs>
</svg>
