<svg width="74" height="50" viewBox="0 0 74 50" fill="none" xmlns="http://www.w3.org/2000/svg">
<g clip-path="url(#clip0_3_4558)">
<path d="M63.96 22.4637C63.6186 22.1361 63.0672 22.1361 62.7257 22.4553L55.0229 29.7871L51.6879 26.5537C51.3464 26.2262 50.795 26.2262 50.4536 26.5453L48.3879 28.5105C48.0464 28.8381 48.0464 29.3672 48.3791 29.6947L54.3751 35.498C54.7164 35.8256 55.2679 35.8256 55.6093 35.5064L65.9907 25.6299C66.3321 25.3023 66.3321 24.7732 65.9995 24.4457L63.96 22.4637ZM69.7985 8.875H62.7958C62.7958 5.9104 60.2835 3.5 57.1937 3.5C54.1038 3.5 51.5916 5.9104 51.5916 8.875H44.5889C42.2693 8.875 40.3873 10.6807 40.3873 12.9062V42.4688C40.3873 44.6943 42.2693 46.5 44.5889 46.5H69.7985C72.118 46.5 74 44.6943 74 42.4688V12.9062C74 10.6807 72.118 8.875 69.7985 8.875ZM57.1937 7.5312C57.964 7.5312 58.5943 8.1359 58.5943 8.875C58.5943 9.6141 57.964 10.2188 57.1937 10.2188C56.4233 10.2188 55.7931 9.6141 55.7931 8.875C55.7931 8.1359 56.4233 7.5312 57.1937 7.5312ZM69.7985 41.7969C69.7985 42.1664 69.4833 42.4688 69.0982 42.4688H45.2892C44.904 42.4688 44.5889 42.1664 44.5889 41.7969V13.5781C44.5889 13.2086 44.904 12.9062 45.2892 12.9062H48.7905V15.5938C48.7905 16.3328 49.4207 16.9375 50.191 16.9375H64.1964C64.9666 16.9375 65.5968 16.3328 65.5968 15.5938V12.9062H69.0982C69.4833 12.9062 69.7985 13.2086 69.7985 13.5781V41.7969Z" fill="#C9D8E3"/>
<path d="M31.919 29.6875C28.9979 29.6875 27.5932 31.25 22.7993 31.25C18.0053 31.25 16.6109 29.6875 13.6796 29.6875C6.1273 29.6875 0 35.5664 0 42.8125V45.3125C0 47.9004 2.18832 50 4.88556 50H40.713C43.4103 50 45.5986 47.9004 45.5986 45.3125V42.8125C45.5986 35.5664 39.4713 29.6875 31.919 29.6875ZM40.713 45.3125H4.88556V42.8125C4.88556 38.1641 8.83477 34.375 13.6796 34.375C15.1656 34.375 17.5778 35.9375 22.7993 35.9375C28.0614 35.9375 30.4229 34.375 31.919 34.375C36.7638 34.375 40.713 38.1641 40.713 42.8125V45.3125ZM22.7993 28.125C30.891 28.125 37.456 21.8262 37.456 14.0625C37.456 6.2988 30.891 0 22.7993 0C14.7076 0 8.14261 6.2988 8.14261 14.0625C8.14261 21.8262 14.7076 28.125 22.7993 28.125ZM22.7993 4.6875C28.1836 4.6875 32.5704 8.8965 32.5704 14.0625C32.5704 19.2285 28.1836 23.4375 22.7993 23.4375C17.415 23.4375 13.0282 19.2285 13.0282 14.0625C13.0282 8.8965 17.415 4.6875 22.7993 4.6875Z" fill="url(#paint0_linear_3_4558)"/>
</g>
<defs>
<linearGradient id="paint0_linear_3_4558" x1="0" y1="25" x2="45.5986" y2="25" gradientUnits="userSpaceOnUse">
<stop stop-color="#00334D"/>
<stop offset="1" stop-color="#28628F"/>
</linearGradient>
<clipPath id="clip0_3_4558">
<rect width="74" height="50" fill="white"/>
</clipPath>
</defs>
</svg>
