<svg xmlns="http://www.w3.org/2000/svg" viewBox="0 0 300 120"><defs/><path d="M291.687 47.366l-14.601-20.583-.18-.253-.193-.237c-8.449-10.325-13.403-13.07-27.925-15.466-11.355-1.873-21.265-3.189-31.195-4.136-18.308-1.747-35.261-2.762-67.719-2.762-32.207 0-50.364 1.104-67.72 2.762-9.926.947-19.835 2.264-31.195 4.136-14.517 2.396-19.476 5.141-27.92 15.466l-.195.237-.179.253L8.094 47.325c-2.366 3.381-4.756 7.65-4.756 14.013 0 6.366 2.39 10.637 4.723 13.974.033.044 14.604 20.587 14.604 20.587l.179.25.195.24c8.444 10.32 13.403 13.065 27.92 15.465 11.36 1.874 21.272 3.188 31.195 4.138 17.359 1.656 35.517 2.758 67.72 2.758 32.202 0 50.364-1.102 67.719-2.758 9.928-.949 19.836-2.264 31.195-4.138 14.521-2.399 19.481-5.145 27.925-15.465l.193-.24.18-.25 14.572-20.543c2.365-3.381 4.752-7.651 4.752-14.018 0-6.363-2.387-10.632-4.723-13.972" fill="#fff"/><path d="M80.845 27.42c-12.989 1.77-15.577 3.009-22.692 11.706l-9.317 13.136c-1.673 2.389-3.105 5.673-3.105 9.076 0 3.406 1.433 6.687 3.105 9.079l9.317 13.138c7.115 8.696 9.703 9.932 22.692 11.704 15.764 2.149 43.472 4.062 69.029 4.062 25.561 0 53.267-1.912 69.032-4.062 12.989-1.772 15.575-3.008 22.692-11.704l9.316-13.138c1.672-2.393 3.105-5.673 3.105-9.079 0-3.403-1.434-6.688-3.105-9.076l-9.316-13.136c-7.117-8.696-9.703-9.936-22.692-11.706-16.072-2.19-42.569-4.058-69.032-4.058-25.557 0-53.265 1.909-69.029 4.058m135.899-11.819c10.573 1.008 20.381 2.373 30.588 4.056 12.302 2.032 15.338 3.604 22.454 12.302L284.358 52.5c1.671 2.39 3.103 4.899 3.103 8.837 0 3.944-1.432 6.452-3.103 8.839l-14.572 20.546c-7.116 8.692-10.152 10.27-22.454 12.299-10.207 1.684-20.015 3.045-30.588 4.059-17.545 1.675-35.368 2.719-66.87 2.719-31.499 0-49.322-1.044-66.867-2.719-10.575-1.014-20.381-2.375-30.589-4.059-12.299-2.029-15.336-3.606-22.453-12.299l-14.57-20.546c-1.673-2.387-3.105-4.895-3.105-8.839 0-3.938 1.433-6.447 3.105-8.837l14.57-20.542c7.117-8.698 10.154-10.27 22.453-12.302 10.208-1.683 20.014-3.047 30.589-4.056 17.544-1.676 35.368-2.722 66.867-2.722 32.696 0 49.325 1.046 66.87 2.723z" fill="#ec1c2e"/><path d="M84.638 77.173c.506.95.68 1.52.775 2.409h14.065c-.85-.89-1.281-1.459-1.787-2.409l-10.263-18.84 10.656-14.364c.708-.95 1.379-1.776 2.107-2.409H87.833c-.279.888-.573 1.459-1.281 2.409l-9.537 12.497-.019-12.497c0-.95.126-1.521.508-2.409H64.831c.381.888.508 1.459.508 2.409v33.204c0 .95-.126 1.52-.508 2.409h12.674c-.381-.89-.508-1.459-.508-2.409V63.487l7.641 13.686M114.941 58.862h4.117c2.661 0 4.499-1.366 4.499-4.407s-1.838-4.405-4.499-4.405h-4.117v8.812m-11.66-14.893c0-.95-.127-1.521-.505-2.409h19.009c5.515 0 13.119 1.417 13.119 10.266 0 6.789-4.269 9.794-8.139 10.437l8.869 14.91c.507.95.937 1.52 1.791 2.409h-14.322c-.092-.89-.269-1.459-.775-2.409l-7.384-12.039v12.039c0 .95.127 1.52.505 2.409h-12.671c.378-.89.505-1.459.505-2.409V43.969zM203.344 41.625v10.39c-.89-.378-1.46-.505-2.409-.505h-11.947v6.589h13.974v8.621c-.887-.383-1.457-.51-2.406-.51h-11.567v10.963c0 .95.095 1.52.478 2.409h-12.676c.38-.89.507-1.459.507-2.409V43.969c0-.95-.127-1.521-.507-2.409l26.553.065M206.006 41.625v10.39c.883-.378 1.453-.505 2.406-.505h7.892v25.663c0 .95-.098 1.52-.478 2.409h12.546c-.38-.89-.475-1.459-.475-2.409V51.51h7.509c.949 0 1.52.126 2.409.505v-10.39h-31.809" fill="#0056a2"/><path d="M160.011 71.981l1.238 5.191c.25.95.271 1.52.126 2.409h13.309c-.613-.89-.893-1.459-1.143-2.409l-9.558-33.247c-.335-.95-.316-1.479-.246-2.366h-16.223c.068.888.087 1.417-.25 2.366l-10.192 33.247c-.249.95-.527 1.52-1.14 2.409h12.609c-.146-.89-.123-1.459.13-2.409l1.238-5.191h10.102m-5.813-8.047h-2.369l3.132-13.122 3.128 13.122h-3.891z" fill="#0056a2"/></svg>